# xmcd CD database file
#
# Track frame offsets:
#	183
#	29843
#	69835
#	110893
#	143338
#	170468
#	200355
#	237915
#	253260
#
# Disc length: 3803 seconds
#
# Revision: 0
# Processed by: cddbd v1.5.1PL0 Copyright (c) Steve Scherf et al.
# Submitted via: CDex 1.51
#
DISCID=7f0ed909
DTITLE=Andy LaVerne Quartet - Frozen Music
DYEAR=1900
DGENRE=Jazz
TTITLE0=NUMERO UNO
TTITLE1=NITEWRITER
TTITLE2=IS NOT MY PROBLEM
TTITLE3=NORTH COUNTRY
TTITLE4=SATAN DOLL
TTITLE5=DECORATIVE TRENDS
TTITLE6=THE BUNDO CREDO
TTITLE7=FROZEN MUSIC
TTITLE8=BLUE CYCLE
EXTD=
EXTT0=
EXTT1=
EXTT2=
EXTT3=
EXTT4=
EXTT5=
EXTT6=
EXTT7=
EXTT8=
PLAYORDER=
